<mxfile host="Electron" modified="2023-08-14T14:33:45.214Z" agent="Mozilla/5.0 (Windows NT 10.0; Win64; x64) AppleWebKit/537.36 (KHTML, like Gecko) draw.io/21.6.8 Chrome/114.0.5735.289 Electron/25.5.0 Safari/537.36" etag="yFVkHupK74JMBZrMYtrh" version="21.6.8" type="device" pages="10">
  <diagram name="11.39" id="eHQQxPzavqG_vvJXWaOr">
    <mxGraphModel dx="880" dy="545" grid="1" gridSize="10" guides="1" tooltips="1" connect="1" arrows="1" fold="1" page="1" pageScale="1" pageWidth="1169" pageHeight="827" math="0" shadow="0">
      <root>
        <mxCell id="0" />
        <mxCell id="1" parent="0" />
        <mxCell id="qs4ZM8zdtcCx1rGhGkoH-1" style="edgeStyle=orthogonalEdgeStyle;rounded=0;orthogonalLoop=1;jettySize=auto;html=1;endArrow=openThin;endFill=0;endSize=12;dashed=1;" edge="1" parent="1" source="qs4ZM8zdtcCx1rGhGkoH-3" target="qs4ZM8zdtcCx1rGhGkoH-7">
          <mxGeometry relative="1" as="geometry" />
        </mxCell>
        <mxCell id="qs4ZM8zdtcCx1rGhGkoH-2" style="edgeStyle=orthogonalEdgeStyle;rounded=0;orthogonalLoop=1;jettySize=auto;html=1;exitX=0.5;exitY=1;exitDx=0;exitDy=0;entryX=0.5;entryY=0;entryDx=0;entryDy=0;endArrow=openThin;endFill=0;endSize=12;dashed=1;" edge="1" parent="1" source="qs4ZM8zdtcCx1rGhGkoH-3" target="qs4ZM8zdtcCx1rGhGkoH-5">
          <mxGeometry relative="1" as="geometry" />
        </mxCell>
        <mxCell id="qs4ZM8zdtcCx1rGhGkoH-3" value="«component»&lt;br&gt;&lt;b&gt;Order&lt;/b&gt;" style="html=1;dropTarget=0;whiteSpace=wrap;" vertex="1" parent="1">
          <mxGeometry x="40" y="40" width="140" height="60" as="geometry" />
        </mxCell>
        <mxCell id="qs4ZM8zdtcCx1rGhGkoH-4" value="" style="shape=module;jettyWidth=8;jettyHeight=4;" vertex="1" parent="qs4ZM8zdtcCx1rGhGkoH-3">
          <mxGeometry x="1" width="20" height="20" relative="1" as="geometry">
            <mxPoint x="-27" y="7" as="offset" />
          </mxGeometry>
        </mxCell>
        <mxCell id="qs4ZM8zdtcCx1rGhGkoH-5" value="«component»&lt;br&gt;&lt;b&gt;Product&lt;/b&gt;" style="html=1;dropTarget=0;whiteSpace=wrap;" vertex="1" parent="1">
          <mxGeometry x="40" y="200" width="140" height="60" as="geometry" />
        </mxCell>
        <mxCell id="qs4ZM8zdtcCx1rGhGkoH-6" value="" style="shape=module;jettyWidth=8;jettyHeight=4;" vertex="1" parent="qs4ZM8zdtcCx1rGhGkoH-5">
          <mxGeometry x="1" width="20" height="20" relative="1" as="geometry">
            <mxPoint x="-27" y="7" as="offset" />
          </mxGeometry>
        </mxCell>
        <mxCell id="qs4ZM8zdtcCx1rGhGkoH-7" value="«component»&lt;br&gt;&lt;b&gt;Account&lt;/b&gt;" style="html=1;dropTarget=0;whiteSpace=wrap;" vertex="1" parent="1">
          <mxGeometry x="280" y="40" width="140" height="60" as="geometry" />
        </mxCell>
        <mxCell id="qs4ZM8zdtcCx1rGhGkoH-8" value="" style="shape=module;jettyWidth=8;jettyHeight=4;" vertex="1" parent="qs4ZM8zdtcCx1rGhGkoH-7">
          <mxGeometry x="1" width="20" height="20" relative="1" as="geometry">
            <mxPoint x="-27" y="7" as="offset" />
          </mxGeometry>
        </mxCell>
        <mxCell id="qs4ZM8zdtcCx1rGhGkoH-9" value="&lt;b&gt;Figure 11.39 Example of an overview diagram showing Components and their general Dependencies&lt;/b&gt;" style="text;html=1;align=left;verticalAlign=middle;resizable=0;points=[];autosize=1;strokeColor=none;fillColor=none;" vertex="1" parent="1">
          <mxGeometry x="40" y="278" width="600" height="30" as="geometry" />
        </mxCell>
      </root>
    </mxGraphModel>
  </diagram>
  <diagram id="ZrupRmUA3r8C0FnBoCxJ" name="11.40">
    <mxGraphModel dx="880" dy="545" grid="1" gridSize="10" guides="1" tooltips="1" connect="1" arrows="1" fold="1" page="1" pageScale="1" pageWidth="1169" pageHeight="827" math="0" shadow="0">
      <root>
        <mxCell id="0" />
        <mxCell id="1" parent="0" />
        <mxCell id="9b01ycb4M2j7ly2FlNeD-1" style="edgeStyle=orthogonalEdgeStyle;rounded=0;orthogonalLoop=1;jettySize=auto;html=1;exitX=1;exitY=0.25;exitDx=0;exitDy=0;labelBackgroundColor=none;endArrow=none;align=left;verticalAlign=bottom;startArrow=halfCircle;startFill=0;startSize=2;spacingLeft=9;spacingBottom=17;entryX=1;entryY=0.25;entryDx=0;entryDy=0;" edge="1" parent="1">
          <mxGeometry relative="1" as="geometry">
            <mxPoint x="290" y="61" as="targetPoint" />
            <mxPoint x="360" y="61" as="sourcePoint" />
          </mxGeometry>
        </mxCell>
        <mxCell id="9b01ycb4M2j7ly2FlNeD-2" value="Person" style="edgeLabel;html=1;align=center;verticalAlign=middle;resizable=0;points=[];" vertex="1" connectable="0" parent="9b01ycb4M2j7ly2FlNeD-1">
          <mxGeometry x="-0.0286" y="-1" relative="1" as="geometry">
            <mxPoint x="10" y="-10" as="offset" />
          </mxGeometry>
        </mxCell>
        <mxCell id="9b01ycb4M2j7ly2FlNeD-3" style="edgeStyle=orthogonalEdgeStyle;rounded=0;orthogonalLoop=1;jettySize=auto;html=1;exitX=1;exitY=0.75;exitDx=0;exitDy=0;labelBackgroundColor=none;endArrow=none;align=left;verticalAlign=bottom;startArrow=halfCircle;startFill=0;startSize=2;spacingLeft=9;spacingBottom=17;entryX=1;entryY=0.75;entryDx=0;entryDy=0;" edge="1" parent="1">
          <mxGeometry relative="1" as="geometry">
            <mxPoint x="290" y="101" as="targetPoint" />
            <mxPoint x="360" y="101" as="sourcePoint" />
          </mxGeometry>
        </mxCell>
        <mxCell id="9b01ycb4M2j7ly2FlNeD-4" value="Invoice" style="edgeLabel;html=1;align=center;verticalAlign=middle;resizable=0;points=[];" vertex="1" connectable="0" parent="9b01ycb4M2j7ly2FlNeD-3">
          <mxGeometry x="-0.0356" relative="1" as="geometry">
            <mxPoint x="10" y="-10" as="offset" />
          </mxGeometry>
        </mxCell>
        <mxCell id="9b01ycb4M2j7ly2FlNeD-5" style="edgeStyle=orthogonalEdgeStyle;rounded=0;orthogonalLoop=1;jettySize=auto;html=1;labelBackgroundColor=none;endArrow=none;verticalAlign=bottom;startArrow=oval;startFill=0;startSize=8;entryX=0;entryY=0.75;entryDx=0;entryDy=0;" edge="1" parent="1">
          <mxGeometry relative="1" as="geometry">
            <mxPoint x="130" y="101" as="targetPoint" />
            <mxPoint x="80" y="101" as="sourcePoint" />
          </mxGeometry>
        </mxCell>
        <mxCell id="9b01ycb4M2j7ly2FlNeD-6" value="Tracking" style="edgeLabel;html=1;align=center;verticalAlign=middle;resizable=0;points=[];" vertex="1" connectable="0" parent="9b01ycb4M2j7ly2FlNeD-5">
          <mxGeometry x="-0.92" y="2" relative="1" as="geometry">
            <mxPoint x="11" y="-12" as="offset" />
          </mxGeometry>
        </mxCell>
        <mxCell id="9b01ycb4M2j7ly2FlNeD-7" value="«component»&lt;br&gt;&lt;b&gt;Order&lt;/b&gt;" style="html=1;dropTarget=0;whiteSpace=wrap;" vertex="1" parent="1">
          <mxGeometry x="130" y="40" width="160" height="80" as="geometry" />
        </mxCell>
        <mxCell id="9b01ycb4M2j7ly2FlNeD-8" value="" style="shape=module;jettyWidth=8;jettyHeight=4;" vertex="1" parent="9b01ycb4M2j7ly2FlNeD-7">
          <mxGeometry x="1" width="20" height="20" relative="1" as="geometry">
            <mxPoint x="-27" y="7" as="offset" />
          </mxGeometry>
        </mxCell>
        <mxCell id="9b01ycb4M2j7ly2FlNeD-9" value="OrderableItem" style="html=1;verticalAlign=bottom;labelBackgroundColor=none;startArrow=halfCircle;startFill=0;startSize=2;endArrow=none;rounded=0;entryX=0.5;entryY=1;entryDx=0;entryDy=0;align=left;spacingLeft=9;spacingBottom=17;" edge="1" parent="1" target="9b01ycb4M2j7ly2FlNeD-7">
          <mxGeometry x="-1" y="3" relative="1" as="geometry">
            <mxPoint x="210" y="180" as="sourcePoint" />
            <mxPoint x="310" y="200" as="targetPoint" />
          </mxGeometry>
        </mxCell>
        <mxCell id="9b01ycb4M2j7ly2FlNeD-10" value="ItemAllocation" style="html=1;verticalAlign=bottom;labelBackgroundColor=none;startArrow=oval;startFill=0;startSize=8;endArrow=none;rounded=0;entryX=0;entryY=0.25;entryDx=0;entryDy=0;" edge="1" parent="1" target="9b01ycb4M2j7ly2FlNeD-7">
          <mxGeometry x="-1" y="3" relative="1" as="geometry">
            <mxPoint x="80" y="60" as="sourcePoint" />
            <mxPoint x="120" y="60" as="targetPoint" />
          </mxGeometry>
        </mxCell>
        <mxCell id="9b01ycb4M2j7ly2FlNeD-11" value="&lt;b&gt;Figure 11.40 A Component with two provided and three required Interfaces&lt;/b&gt;" style="text;html=1;align=left;verticalAlign=middle;resizable=0;points=[];autosize=1;strokeColor=none;fillColor=none;" vertex="1" parent="1">
          <mxGeometry x="50" y="188" width="450" height="30" as="geometry" />
        </mxCell>
      </root>
    </mxGraphModel>
  </diagram>
  <diagram id="Sg8F1Ss2vzjTWHo4H6zG" name="11.41">
    <mxGraphModel dx="880" dy="545" grid="1" gridSize="10" guides="1" tooltips="1" connect="1" arrows="1" fold="1" page="1" pageScale="1" pageWidth="1169" pageHeight="827" math="0" shadow="0">
      <root>
        <mxCell id="0" />
        <mxCell id="1" parent="0" />
        <mxCell id="Hjp9wKGgTHo2v420Q3uN-1" value="" style="fontStyle=1;align=center;verticalAlign=top;childLayout=stackLayout;horizontal=1;horizontalStack=0;resizeParent=1;resizeParentMax=0;resizeLast=0;marginBottom=0;" vertex="1" parent="1">
          <mxGeometry x="40" y="40" width="140" height="246" as="geometry" />
        </mxCell>
        <mxCell id="Hjp9wKGgTHo2v420Q3uN-2" value="«component»&lt;br&gt;&lt;b&gt;Order&lt;/b&gt;" style="html=1;align=center;spacingLeft=4;verticalAlign=top;strokeColor=none;fillColor=none;whiteSpace=wrap;" vertex="1" parent="Hjp9wKGgTHo2v420Q3uN-1">
          <mxGeometry width="140" height="40" as="geometry" />
        </mxCell>
        <mxCell id="Hjp9wKGgTHo2v420Q3uN-3" value="" style="shape=module;jettyWidth=10;jettyHeight=4;" vertex="1" parent="Hjp9wKGgTHo2v420Q3uN-2">
          <mxGeometry x="1" width="16" height="20" relative="1" as="geometry">
            <mxPoint x="-25" y="9" as="offset" />
          </mxGeometry>
        </mxCell>
        <mxCell id="Hjp9wKGgTHo2v420Q3uN-4" value="" style="line;strokeWidth=1;fillColor=none;align=left;verticalAlign=middle;spacingTop=-1;spacingLeft=3;spacingRight=3;rotatable=0;labelPosition=right;points=[];portConstraint=eastwest;" vertex="1" parent="Hjp9wKGgTHo2v420Q3uN-1">
          <mxGeometry y="40" width="140" height="8" as="geometry" />
        </mxCell>
        <mxCell id="Hjp9wKGgTHo2v420Q3uN-5" value="provided interfaces" style="html=1;align=center;spacingLeft=4;verticalAlign=top;strokeColor=none;fillColor=none;whiteSpace=wrap;" vertex="1" parent="Hjp9wKGgTHo2v420Q3uN-1">
          <mxGeometry y="48" width="140" height="25" as="geometry" />
        </mxCell>
        <mxCell id="Hjp9wKGgTHo2v420Q3uN-6" value="ItemAllocation" style="html=1;align=left;spacingLeft=4;verticalAlign=top;strokeColor=none;fillColor=none;whiteSpace=wrap;" vertex="1" parent="Hjp9wKGgTHo2v420Q3uN-1">
          <mxGeometry y="73" width="140" height="25" as="geometry" />
        </mxCell>
        <mxCell id="Hjp9wKGgTHo2v420Q3uN-7" value="Tracking" style="html=1;align=left;spacingLeft=4;verticalAlign=top;strokeColor=none;fillColor=none;whiteSpace=wrap;" vertex="1" parent="Hjp9wKGgTHo2v420Q3uN-1">
          <mxGeometry y="98" width="140" height="25" as="geometry" />
        </mxCell>
        <mxCell id="Hjp9wKGgTHo2v420Q3uN-8" value="" style="line;strokeWidth=1;fillColor=none;align=left;verticalAlign=middle;spacingTop=-1;spacingLeft=3;spacingRight=3;rotatable=0;labelPosition=right;points=[];portConstraint=eastwest;" vertex="1" parent="Hjp9wKGgTHo2v420Q3uN-1">
          <mxGeometry y="123" width="140" height="8" as="geometry" />
        </mxCell>
        <mxCell id="Hjp9wKGgTHo2v420Q3uN-9" value="required interfaces" style="html=1;align=center;spacingLeft=4;verticalAlign=top;strokeColor=none;fillColor=none;whiteSpace=wrap;" vertex="1" parent="Hjp9wKGgTHo2v420Q3uN-1">
          <mxGeometry y="131" width="140" height="25" as="geometry" />
        </mxCell>
        <mxCell id="Hjp9wKGgTHo2v420Q3uN-10" value="Person" style="html=1;align=left;spacingLeft=4;verticalAlign=top;strokeColor=none;fillColor=none;whiteSpace=wrap;" vertex="1" parent="Hjp9wKGgTHo2v420Q3uN-1">
          <mxGeometry y="156" width="140" height="30" as="geometry" />
        </mxCell>
        <mxCell id="Hjp9wKGgTHo2v420Q3uN-11" value="Invoice" style="html=1;align=left;spacingLeft=4;verticalAlign=top;strokeColor=none;fillColor=none;whiteSpace=wrap;" vertex="1" parent="Hjp9wKGgTHo2v420Q3uN-1">
          <mxGeometry y="186" width="140" height="30" as="geometry" />
        </mxCell>
        <mxCell id="Hjp9wKGgTHo2v420Q3uN-12" value="OrderableItem" style="html=1;align=left;spacingLeft=4;verticalAlign=top;strokeColor=none;fillColor=none;whiteSpace=wrap;" vertex="1" parent="Hjp9wKGgTHo2v420Q3uN-1">
          <mxGeometry y="216" width="140" height="30" as="geometry" />
        </mxCell>
        <mxCell id="Hjp9wKGgTHo2v420Q3uN-13" value="&lt;b&gt;Figure 11.41 Black box notation showing a listing of provided and required interfaces&lt;/b&gt;" style="text;html=1;align=left;verticalAlign=middle;resizable=0;points=[];autosize=1;strokeColor=none;fillColor=none;" vertex="1" parent="1">
          <mxGeometry x="40" y="286" width="510" height="30" as="geometry" />
        </mxCell>
      </root>
    </mxGraphModel>
  </diagram>
  <diagram id="AhKBN3DAkgrmDrXtoYWf" name="11.42">
    <mxGraphModel dx="880" dy="545" grid="1" gridSize="10" guides="1" tooltips="1" connect="1" arrows="1" fold="1" page="1" pageScale="1" pageWidth="1169" pageHeight="827" math="0" shadow="0">
      <root>
        <mxCell id="0" />
        <mxCell id="1" parent="0" />
        <mxCell id="eElABJGyp3ygNUu5z6_g-1" value="" style="fontStyle=1;align=center;verticalAlign=top;childLayout=stackLayout;horizontal=1;horizontalStack=0;resizeParent=1;resizeParentMax=0;resizeLast=0;marginBottom=0;" vertex="1" parent="1">
          <mxGeometry x="40" y="40" width="140" height="397" as="geometry" />
        </mxCell>
        <mxCell id="eElABJGyp3ygNUu5z6_g-2" value="«component»&lt;br&gt;&lt;b&gt;Order&lt;/b&gt;" style="html=1;align=center;spacingLeft=4;verticalAlign=top;strokeColor=none;fillColor=none;whiteSpace=wrap;" vertex="1" parent="eElABJGyp3ygNUu5z6_g-1">
          <mxGeometry width="140" height="40" as="geometry" />
        </mxCell>
        <mxCell id="eElABJGyp3ygNUu5z6_g-3" value="" style="shape=module;jettyWidth=10;jettyHeight=4;" vertex="1" parent="eElABJGyp3ygNUu5z6_g-2">
          <mxGeometry x="1" width="16" height="20" relative="1" as="geometry">
            <mxPoint x="-25" y="9" as="offset" />
          </mxGeometry>
        </mxCell>
        <mxCell id="eElABJGyp3ygNUu5z6_g-4" value="" style="line;strokeWidth=1;fillColor=none;align=left;verticalAlign=middle;spacingTop=-1;spacingLeft=3;spacingRight=3;rotatable=0;labelPosition=right;points=[];portConstraint=eastwest;" vertex="1" parent="eElABJGyp3ygNUu5z6_g-1">
          <mxGeometry y="40" width="140" height="8" as="geometry" />
        </mxCell>
        <mxCell id="eElABJGyp3ygNUu5z6_g-5" value="provided interfaces" style="html=1;align=center;spacingLeft=4;verticalAlign=top;strokeColor=none;fillColor=none;whiteSpace=wrap;" vertex="1" parent="eElABJGyp3ygNUu5z6_g-1">
          <mxGeometry y="48" width="140" height="25" as="geometry" />
        </mxCell>
        <mxCell id="eElABJGyp3ygNUu5z6_g-6" value="ItemAllocation" style="html=1;align=left;spacingLeft=4;verticalAlign=top;strokeColor=none;fillColor=none;whiteSpace=wrap;" vertex="1" parent="eElABJGyp3ygNUu5z6_g-1">
          <mxGeometry y="73" width="140" height="25" as="geometry" />
        </mxCell>
        <mxCell id="eElABJGyp3ygNUu5z6_g-7" value="Tracking" style="html=1;align=left;spacingLeft=4;verticalAlign=top;strokeColor=none;fillColor=none;whiteSpace=wrap;" vertex="1" parent="eElABJGyp3ygNUu5z6_g-1">
          <mxGeometry y="98" width="140" height="25" as="geometry" />
        </mxCell>
        <mxCell id="eElABJGyp3ygNUu5z6_g-8" value="" style="line;strokeWidth=1;fillColor=none;align=left;verticalAlign=middle;spacingTop=-1;spacingLeft=3;spacingRight=3;rotatable=0;labelPosition=right;points=[];portConstraint=eastwest;" vertex="1" parent="eElABJGyp3ygNUu5z6_g-1">
          <mxGeometry y="123" width="140" height="8" as="geometry" />
        </mxCell>
        <mxCell id="eElABJGyp3ygNUu5z6_g-9" value="required interfaces" style="html=1;align=center;spacingLeft=4;verticalAlign=top;strokeColor=none;fillColor=none;whiteSpace=wrap;" vertex="1" parent="eElABJGyp3ygNUu5z6_g-1">
          <mxGeometry y="131" width="140" height="25" as="geometry" />
        </mxCell>
        <mxCell id="eElABJGyp3ygNUu5z6_g-10" value="Person" style="html=1;align=left;spacingLeft=4;verticalAlign=top;strokeColor=none;fillColor=none;whiteSpace=wrap;" vertex="1" parent="eElABJGyp3ygNUu5z6_g-1">
          <mxGeometry y="156" width="140" height="30" as="geometry" />
        </mxCell>
        <mxCell id="eElABJGyp3ygNUu5z6_g-11" value="Invoice" style="html=1;align=left;spacingLeft=4;verticalAlign=top;strokeColor=none;fillColor=none;whiteSpace=wrap;" vertex="1" parent="eElABJGyp3ygNUu5z6_g-1">
          <mxGeometry y="186" width="140" height="30" as="geometry" />
        </mxCell>
        <mxCell id="eElABJGyp3ygNUu5z6_g-12" value="OrderableItem" style="html=1;align=left;spacingLeft=4;verticalAlign=top;strokeColor=none;fillColor=none;whiteSpace=wrap;" vertex="1" parent="eElABJGyp3ygNUu5z6_g-1">
          <mxGeometry y="216" width="140" height="30" as="geometry" />
        </mxCell>
        <mxCell id="eElABJGyp3ygNUu5z6_g-13" value="" style="line;strokeWidth=1;fillColor=none;align=left;verticalAlign=middle;spacingTop=-1;spacingLeft=3;spacingRight=3;rotatable=0;labelPosition=right;points=[];portConstraint=eastwest;" vertex="1" parent="eElABJGyp3ygNUu5z6_g-1">
          <mxGeometry y="246" width="140" height="8" as="geometry" />
        </mxCell>
        <mxCell id="eElABJGyp3ygNUu5z6_g-14" value="realizations" style="html=1;align=center;spacingLeft=4;verticalAlign=top;strokeColor=none;fillColor=none;whiteSpace=wrap;" vertex="1" parent="eElABJGyp3ygNUu5z6_g-1">
          <mxGeometry y="254" width="140" height="25" as="geometry" />
        </mxCell>
        <mxCell id="eElABJGyp3ygNUu5z6_g-15" value="OrderHeader" style="html=1;align=left;spacingLeft=4;verticalAlign=top;strokeColor=none;fillColor=none;whiteSpace=wrap;" vertex="1" parent="eElABJGyp3ygNUu5z6_g-1">
          <mxGeometry y="279" width="140" height="30" as="geometry" />
        </mxCell>
        <mxCell id="eElABJGyp3ygNUu5z6_g-16" value="LineItem" style="html=1;align=left;spacingLeft=4;verticalAlign=top;strokeColor=none;fillColor=none;whiteSpace=wrap;" vertex="1" parent="eElABJGyp3ygNUu5z6_g-1">
          <mxGeometry y="309" width="140" height="30" as="geometry" />
        </mxCell>
        <mxCell id="eElABJGyp3ygNUu5z6_g-17" value="" style="line;strokeWidth=1;fillColor=none;align=left;verticalAlign=middle;spacingTop=-1;spacingLeft=3;spacingRight=3;rotatable=0;labelPosition=right;points=[];portConstraint=eastwest;" vertex="1" parent="eElABJGyp3ygNUu5z6_g-1">
          <mxGeometry y="339" width="140" height="8" as="geometry" />
        </mxCell>
        <mxCell id="eElABJGyp3ygNUu5z6_g-18" value="artifacts" style="html=1;align=center;spacingLeft=4;verticalAlign=top;strokeColor=none;fillColor=none;whiteSpace=wrap;" vertex="1" parent="eElABJGyp3ygNUu5z6_g-1">
          <mxGeometry y="347" width="140" height="25" as="geometry" />
        </mxCell>
        <mxCell id="eElABJGyp3ygNUu5z6_g-19" value="Order.jar" style="html=1;align=left;spacingLeft=4;verticalAlign=top;strokeColor=none;fillColor=none;whiteSpace=wrap;" vertex="1" parent="eElABJGyp3ygNUu5z6_g-1">
          <mxGeometry y="372" width="140" height="25" as="geometry" />
        </mxCell>
        <mxCell id="eElABJGyp3ygNUu5z6_g-20" value="&lt;b&gt;Figure 11.42 Optional “white-box” representation of a Component&lt;/b&gt;" style="text;html=1;align=left;verticalAlign=middle;resizable=0;points=[];autosize=1;strokeColor=none;fillColor=none;" vertex="1" parent="1">
          <mxGeometry x="40" y="437" width="400" height="30" as="geometry" />
        </mxCell>
      </root>
    </mxGraphModel>
  </diagram>
  <diagram id="UyCByQbnJILvrDx4y8WF" name="11.43">
    <mxGraphModel dx="880" dy="545" grid="1" gridSize="10" guides="1" tooltips="1" connect="1" arrows="1" fold="1" page="1" pageScale="1" pageWidth="1169" pageHeight="827" math="0" shadow="0">
      <root>
        <mxCell id="0" />
        <mxCell id="1" parent="0" />
        <mxCell id="TsbpB3W_fcE3EVrwhcpe-1" value="" style="fontStyle=1;align=center;verticalAlign=top;childLayout=stackLayout;horizontal=1;horizontalStack=0;resizeParent=1;resizeParentMax=0;resizeLast=0;marginBottom=0;" vertex="1" parent="1">
          <mxGeometry x="40" y="40" width="140" height="148" as="geometry" />
        </mxCell>
        <mxCell id="TsbpB3W_fcE3EVrwhcpe-2" value="«interface»&lt;br&gt;&lt;b&gt;OrderEntry&lt;/b&gt;" style="html=1;align=center;spacingLeft=4;verticalAlign=middle;strokeColor=none;fillColor=none;whiteSpace=wrap;" vertex="1" parent="TsbpB3W_fcE3EVrwhcpe-1">
          <mxGeometry width="140" height="40" as="geometry" />
        </mxCell>
        <mxCell id="TsbpB3W_fcE3EVrwhcpe-3" value="" style="shape=module;jettyWidth=10;jettyHeight=4;" vertex="1" parent="TsbpB3W_fcE3EVrwhcpe-2">
          <mxGeometry x="1" width="16" height="20" relative="1" as="geometry">
            <mxPoint x="-25" y="9" as="offset" />
          </mxGeometry>
        </mxCell>
        <mxCell id="TsbpB3W_fcE3EVrwhcpe-4" value="" style="line;strokeWidth=1;fillColor=none;align=left;verticalAlign=middle;spacingTop=-1;spacingLeft=3;spacingRight=3;rotatable=0;labelPosition=right;points=[];portConstraint=eastwest;" vertex="1" parent="TsbpB3W_fcE3EVrwhcpe-1">
          <mxGeometry y="40" width="140" height="8" as="geometry" />
        </mxCell>
        <mxCell id="TsbpB3W_fcE3EVrwhcpe-5" value="operations" style="html=1;align=center;spacingLeft=4;verticalAlign=top;strokeColor=none;fillColor=none;whiteSpace=wrap;" vertex="1" parent="TsbpB3W_fcE3EVrwhcpe-1">
          <mxGeometry y="48" width="140" height="25" as="geometry" />
        </mxCell>
        <mxCell id="TsbpB3W_fcE3EVrwhcpe-6" value="Create()" style="html=1;align=left;spacingLeft=4;verticalAlign=top;strokeColor=none;fillColor=none;whiteSpace=wrap;" vertex="1" parent="TsbpB3W_fcE3EVrwhcpe-1">
          <mxGeometry y="73" width="140" height="25" as="geometry" />
        </mxCell>
        <mxCell id="TsbpB3W_fcE3EVrwhcpe-7" value="Validate()" style="html=1;align=left;spacingLeft=4;verticalAlign=top;strokeColor=none;fillColor=none;whiteSpace=wrap;" vertex="1" parent="TsbpB3W_fcE3EVrwhcpe-1">
          <mxGeometry y="98" width="140" height="25" as="geometry" />
        </mxCell>
        <mxCell id="TsbpB3W_fcE3EVrwhcpe-8" value="AddOrderLine()" style="html=1;align=left;spacingLeft=4;verticalAlign=top;strokeColor=none;fillColor=none;whiteSpace=wrap;" vertex="1" parent="TsbpB3W_fcE3EVrwhcpe-1">
          <mxGeometry y="123" width="140" height="25" as="geometry" />
        </mxCell>
        <mxCell id="TsbpB3W_fcE3EVrwhcpe-9" value="" style="fontStyle=1;align=center;verticalAlign=top;childLayout=stackLayout;horizontal=1;horizontalStack=0;resizeParent=1;resizeParentMax=0;resizeLast=0;marginBottom=0;" vertex="1" parent="1">
          <mxGeometry x="530" y="40" width="140" height="148" as="geometry" />
        </mxCell>
        <mxCell id="TsbpB3W_fcE3EVrwhcpe-10" value="«interface»&lt;br&gt;&lt;b&gt;Person&lt;/b&gt;" style="html=1;align=center;spacingLeft=4;verticalAlign=middle;strokeColor=none;fillColor=none;whiteSpace=wrap;" vertex="1" parent="TsbpB3W_fcE3EVrwhcpe-9">
          <mxGeometry width="140" height="40" as="geometry" />
        </mxCell>
        <mxCell id="TsbpB3W_fcE3EVrwhcpe-11" value="" style="shape=module;jettyWidth=10;jettyHeight=4;" vertex="1" parent="TsbpB3W_fcE3EVrwhcpe-10">
          <mxGeometry x="1" width="16" height="20" relative="1" as="geometry">
            <mxPoint x="-25" y="9" as="offset" />
          </mxGeometry>
        </mxCell>
        <mxCell id="TsbpB3W_fcE3EVrwhcpe-12" value="" style="line;strokeWidth=1;fillColor=none;align=left;verticalAlign=middle;spacingTop=-1;spacingLeft=3;spacingRight=3;rotatable=0;labelPosition=right;points=[];portConstraint=eastwest;" vertex="1" parent="TsbpB3W_fcE3EVrwhcpe-9">
          <mxGeometry y="40" width="140" height="8" as="geometry" />
        </mxCell>
        <mxCell id="TsbpB3W_fcE3EVrwhcpe-13" value="operations" style="html=1;align=center;spacingLeft=4;verticalAlign=top;strokeColor=none;fillColor=none;whiteSpace=wrap;" vertex="1" parent="TsbpB3W_fcE3EVrwhcpe-9">
          <mxGeometry y="48" width="140" height="25" as="geometry" />
        </mxCell>
        <mxCell id="TsbpB3W_fcE3EVrwhcpe-14" value="Create()" style="html=1;align=left;spacingLeft=4;verticalAlign=top;strokeColor=none;fillColor=none;whiteSpace=wrap;" vertex="1" parent="TsbpB3W_fcE3EVrwhcpe-9">
          <mxGeometry y="73" width="140" height="25" as="geometry" />
        </mxCell>
        <mxCell id="TsbpB3W_fcE3EVrwhcpe-15" value="FindByName()" style="html=1;align=left;spacingLeft=4;verticalAlign=top;strokeColor=none;fillColor=none;whiteSpace=wrap;" vertex="1" parent="TsbpB3W_fcE3EVrwhcpe-9">
          <mxGeometry y="98" width="140" height="25" as="geometry" />
        </mxCell>
        <mxCell id="TsbpB3W_fcE3EVrwhcpe-16" value="GetDetails()" style="html=1;align=left;spacingLeft=4;verticalAlign=top;strokeColor=none;fillColor=none;whiteSpace=wrap;" vertex="1" parent="TsbpB3W_fcE3EVrwhcpe-9">
          <mxGeometry y="123" width="140" height="25" as="geometry" />
        </mxCell>
        <mxCell id="TsbpB3W_fcE3EVrwhcpe-17" value="" style="fontStyle=1;align=center;verticalAlign=top;childLayout=stackLayout;horizontal=1;horizontalStack=0;resizeParent=1;resizeParentMax=0;resizeLast=0;marginBottom=0;" vertex="1" parent="1">
          <mxGeometry x="280" y="41" width="140" height="40" as="geometry" />
        </mxCell>
        <mxCell id="TsbpB3W_fcE3EVrwhcpe-18" value="«component»&lt;br&gt;&lt;b&gt;Order&lt;/b&gt;" style="html=1;align=center;spacingLeft=4;verticalAlign=middle;strokeColor=none;fillColor=none;whiteSpace=wrap;" vertex="1" parent="TsbpB3W_fcE3EVrwhcpe-17">
          <mxGeometry width="140" height="40" as="geometry" />
        </mxCell>
        <mxCell id="TsbpB3W_fcE3EVrwhcpe-19" value="" style="shape=module;jettyWidth=10;jettyHeight=4;" vertex="1" parent="TsbpB3W_fcE3EVrwhcpe-18">
          <mxGeometry x="1" width="16" height="20" relative="1" as="geometry">
            <mxPoint x="-25" y="9" as="offset" />
          </mxGeometry>
        </mxCell>
        <mxCell id="TsbpB3W_fcE3EVrwhcpe-20" value="" style="endArrow=block;startArrow=none;endFill=0;startFill=0;endSize=8;html=1;verticalAlign=bottom;dashed=1;labelBackgroundColor=none;rounded=0;" edge="1" parent="1" source="TsbpB3W_fcE3EVrwhcpe-18">
          <mxGeometry width="160" relative="1" as="geometry">
            <mxPoint x="120" y="61" as="sourcePoint" />
            <mxPoint x="180" y="61" as="targetPoint" />
          </mxGeometry>
        </mxCell>
        <mxCell id="TsbpB3W_fcE3EVrwhcpe-21" value="«use»" style="endArrow=open;html=1;rounded=0;align=center;verticalAlign=bottom;dashed=1;endFill=0;labelBackgroundColor=none;exitX=1;exitY=0.5;exitDx=0;exitDy=0;entryX=0;entryY=0.5;entryDx=0;entryDy=0;" edge="1" parent="1" source="TsbpB3W_fcE3EVrwhcpe-18" target="TsbpB3W_fcE3EVrwhcpe-10">
          <mxGeometry relative="1" as="geometry">
            <mxPoint x="410" y="60" as="sourcePoint" />
            <mxPoint x="570" y="60" as="targetPoint" />
          </mxGeometry>
        </mxCell>
        <mxCell id="TsbpB3W_fcE3EVrwhcpe-22" value="&lt;b&gt;Figure 11.43 Explicit representation of provided and required Interfaces using Dependency notation.&lt;/b&gt;" style="text;html=1;align=left;verticalAlign=middle;resizable=0;points=[];autosize=1;strokeColor=none;fillColor=none;" vertex="1" parent="1">
          <mxGeometry x="40" y="188" width="590" height="30" as="geometry" />
        </mxCell>
      </root>
    </mxGraphModel>
  </diagram>
  <diagram id="KyNHPW0ARfE1eZ4f8Be-" name="11.44">
    <mxGraphModel dx="880" dy="545" grid="1" gridSize="10" guides="1" tooltips="1" connect="1" arrows="1" fold="1" page="1" pageScale="1" pageWidth="1169" pageHeight="827" math="0" shadow="0">
      <root>
        <mxCell id="0" />
        <mxCell id="1" parent="0" />
        <mxCell id="kFPWZKUZmTERQ6TFj-e6-1" value="" style="fontStyle=1;align=center;verticalAlign=top;childLayout=stackLayout;horizontal=1;horizontalStack=0;resizeParent=1;resizeParentMax=0;resizeLast=0;marginBottom=0;" vertex="1" parent="1">
          <mxGeometry x="225" y="41" width="140" height="40" as="geometry" />
        </mxCell>
        <mxCell id="kFPWZKUZmTERQ6TFj-e6-2" value="«component»&lt;br&gt;&lt;b&gt;Customer&lt;/b&gt;" style="html=1;align=center;spacingLeft=4;verticalAlign=middle;strokeColor=none;fillColor=none;whiteSpace=wrap;" vertex="1" parent="kFPWZKUZmTERQ6TFj-e6-1">
          <mxGeometry width="140" height="40" as="geometry" />
        </mxCell>
        <mxCell id="kFPWZKUZmTERQ6TFj-e6-3" value="" style="shape=module;jettyWidth=10;jettyHeight=4;" vertex="1" parent="kFPWZKUZmTERQ6TFj-e6-2">
          <mxGeometry x="1" width="16" height="20" relative="1" as="geometry">
            <mxPoint x="-25" y="9" as="offset" />
          </mxGeometry>
        </mxCell>
        <mxCell id="kFPWZKUZmTERQ6TFj-e6-4" style="rounded=0;orthogonalLoop=1;jettySize=auto;html=1;exitX=0.5;exitY=0;exitDx=0;exitDy=0;entryX=0.25;entryY=1;entryDx=0;entryDy=0;dashed=1;endArrow=blockThin;endFill=0;endSize=12;" edge="1" parent="1" source="kFPWZKUZmTERQ6TFj-e6-5" target="kFPWZKUZmTERQ6TFj-e6-2">
          <mxGeometry relative="1" as="geometry" />
        </mxCell>
        <mxCell id="kFPWZKUZmTERQ6TFj-e6-5" value="CustomerImpl" style="whiteSpace=wrap;html=1;" vertex="1" parent="1">
          <mxGeometry x="50" y="145" width="100" height="30" as="geometry" />
        </mxCell>
        <mxCell id="kFPWZKUZmTERQ6TFj-e6-6" style="edgeStyle=orthogonalEdgeStyle;rounded=0;orthogonalLoop=1;jettySize=auto;html=1;exitX=0.5;exitY=0;exitDx=0;exitDy=0;entryX=0.5;entryY=1;entryDx=0;entryDy=0;endArrow=blockThin;dashed=1;endFill=0;endSize=12;" edge="1" parent="1" source="kFPWZKUZmTERQ6TFj-e6-7" target="kFPWZKUZmTERQ6TFj-e6-2">
          <mxGeometry relative="1" as="geometry" />
        </mxCell>
        <mxCell id="kFPWZKUZmTERQ6TFj-e6-7" value="CustomerColl" style="whiteSpace=wrap;html=1;" vertex="1" parent="1">
          <mxGeometry x="245" y="145" width="100" height="30" as="geometry" />
        </mxCell>
        <mxCell id="kFPWZKUZmTERQ6TFj-e6-8" style="rounded=0;orthogonalLoop=1;jettySize=auto;html=1;exitX=0.5;exitY=0;exitDx=0;exitDy=0;entryX=0.75;entryY=1;entryDx=0;entryDy=0;endArrow=blockThin;dashed=1;endFill=0;endSize=12;" edge="1" parent="1" source="kFPWZKUZmTERQ6TFj-e6-9" target="kFPWZKUZmTERQ6TFj-e6-2">
          <mxGeometry relative="1" as="geometry" />
        </mxCell>
        <mxCell id="kFPWZKUZmTERQ6TFj-e6-9" value="CustomerDef" style="whiteSpace=wrap;html=1;" vertex="1" parent="1">
          <mxGeometry x="440" y="145" width="100" height="30" as="geometry" />
        </mxCell>
        <mxCell id="kFPWZKUZmTERQ6TFj-e6-10" value="&lt;b&gt;Figure 11.44 A representation of the realization of a complex Component&lt;/b&gt;" style="text;html=1;align=left;verticalAlign=middle;resizable=0;points=[];autosize=1;strokeColor=none;fillColor=none;" vertex="1" parent="1">
          <mxGeometry x="40" y="200" width="440" height="30" as="geometry" />
        </mxCell>
      </root>
    </mxGraphModel>
  </diagram>
  <diagram id="z09RzWNNfr20FMruB2mF" name="11.45">
    <mxGraphModel dx="880" dy="545" grid="1" gridSize="10" guides="1" tooltips="1" connect="1" arrows="1" fold="1" page="1" pageScale="1" pageWidth="1169" pageHeight="827" math="0" shadow="0">
      <root>
        <mxCell id="0" />
        <mxCell id="1" parent="0" />
        <mxCell id="Ss3X30y5o6bt5deMh3Y2-1" value="" style="fontStyle=1;align=center;verticalAlign=middle;childLayout=stackLayout;horizontal=1;horizontalStack=0;resizeParent=1;resizeParentMax=0;resizeLast=0;marginBottom=0;" vertex="1" parent="1">
          <mxGeometry x="100" y="40" width="330" height="280" as="geometry" />
        </mxCell>
        <mxCell id="Ss3X30y5o6bt5deMh3Y2-2" value="«component»&lt;br&gt;&lt;b&gt;Order&lt;/b&gt;" style="html=1;align=center;spacingLeft=4;verticalAlign=top;strokeColor=none;fillColor=none;whiteSpace=wrap;" vertex="1" parent="Ss3X30y5o6bt5deMh3Y2-1">
          <mxGeometry width="330" height="40" as="geometry" />
        </mxCell>
        <mxCell id="Ss3X30y5o6bt5deMh3Y2-3" value="" style="shape=module;jettyWidth=10;jettyHeight=4;" vertex="1" parent="Ss3X30y5o6bt5deMh3Y2-2">
          <mxGeometry x="1" width="16" height="20" relative="1" as="geometry">
            <mxPoint x="-25" y="9" as="offset" />
          </mxGeometry>
        </mxCell>
        <mxCell id="Ss3X30y5o6bt5deMh3Y2-4" value="" style="line;strokeWidth=1;fillColor=none;align=left;verticalAlign=middle;spacingTop=-1;spacingLeft=3;spacingRight=3;rotatable=0;labelPosition=right;points=[];portConstraint=eastwest;" vertex="1" parent="Ss3X30y5o6bt5deMh3Y2-1">
          <mxGeometry y="40" width="330" height="8" as="geometry" />
        </mxCell>
        <mxCell id="Ss3X30y5o6bt5deMh3Y2-5" value="packaged elements" style="html=1;align=center;spacingLeft=4;verticalAlign=top;strokeColor=none;fillColor=none;whiteSpace=wrap;" vertex="1" parent="Ss3X30y5o6bt5deMh3Y2-1">
          <mxGeometry y="48" width="330" height="25" as="geometry" />
        </mxCell>
        <mxCell id="Ss3X30y5o6bt5deMh3Y2-6" style="edgeStyle=orthogonalEdgeStyle;rounded=0;orthogonalLoop=1;jettySize=auto;html=1;exitX=1;exitY=0.5;exitDx=0;exitDy=0;verticalAlign=bottom;labelBackgroundColor=none;startArrow=halfCircle;startFill=0;startSize=2;endArrow=none;entryX=1;entryY=0.5;entryDx=0;entryDy=0;" edge="1" parent="Ss3X30y5o6bt5deMh3Y2-1" target="Ss3X30y5o6bt5deMh3Y2-8">
          <mxGeometry relative="1" as="geometry">
            <mxPoint x="390" y="176.41379310344826" as="sourcePoint" />
          </mxGeometry>
        </mxCell>
        <mxCell id="Ss3X30y5o6bt5deMh3Y2-7" value="Person" style="edgeLabel;html=1;align=center;verticalAlign=middle;resizable=0;points=[];" vertex="1" connectable="0" parent="Ss3X30y5o6bt5deMh3Y2-6">
          <mxGeometry x="-0.2532" y="2" relative="1" as="geometry">
            <mxPoint x="21" y="-17" as="offset" />
          </mxGeometry>
        </mxCell>
        <mxCell id="Ss3X30y5o6bt5deMh3Y2-8" value="&amp;nbsp;" style="html=1;align=left;spacingLeft=4;verticalAlign=top;strokeColor=none;fillColor=none;whiteSpace=wrap;" vertex="1" parent="Ss3X30y5o6bt5deMh3Y2-1">
          <mxGeometry y="73" width="330" height="207" as="geometry" />
        </mxCell>
        <mxCell id="Ss3X30y5o6bt5deMh3Y2-9" value="" style="group" vertex="1" connectable="0" parent="1">
          <mxGeometry x="215" y="135" width="100" height="170" as="geometry" />
        </mxCell>
        <mxCell id="Ss3X30y5o6bt5deMh3Y2-10" value="&lt;b&gt;OrderHeader&lt;/b&gt;" style="whiteSpace=wrap;html=1;" vertex="1" parent="Ss3X30y5o6bt5deMh3Y2-9">
          <mxGeometry width="100" height="30" as="geometry" />
        </mxCell>
        <mxCell id="Ss3X30y5o6bt5deMh3Y2-11" value="&lt;b&gt;LineItem&lt;/b&gt;" style="whiteSpace=wrap;html=1;" vertex="1" parent="Ss3X30y5o6bt5deMh3Y2-9">
          <mxGeometry y="140" width="100" height="30" as="geometry" />
        </mxCell>
        <mxCell id="Ss3X30y5o6bt5deMh3Y2-12" style="edgeStyle=orthogonalEdgeStyle;rounded=0;orthogonalLoop=1;jettySize=auto;html=1;startArrow=diamondThin;startFill=1;startSize=12;endArrow=none;endFill=0;" edge="1" parent="Ss3X30y5o6bt5deMh3Y2-9" source="Ss3X30y5o6bt5deMh3Y2-10" target="Ss3X30y5o6bt5deMh3Y2-11">
          <mxGeometry relative="1" as="geometry" />
        </mxCell>
        <mxCell id="Ss3X30y5o6bt5deMh3Y2-13" value="1" style="edgeLabel;html=1;align=center;verticalAlign=middle;resizable=0;points=[];" vertex="1" connectable="0" parent="Ss3X30y5o6bt5deMh3Y2-12">
          <mxGeometry x="-0.5818" relative="1" as="geometry">
            <mxPoint x="10" as="offset" />
          </mxGeometry>
        </mxCell>
        <mxCell id="Ss3X30y5o6bt5deMh3Y2-14" value="order" style="edgeLabel;html=1;align=center;verticalAlign=middle;resizable=0;points=[];" vertex="1" connectable="0" parent="Ss3X30y5o6bt5deMh3Y2-12">
          <mxGeometry x="-0.5818" relative="1" as="geometry">
            <mxPoint x="-20" as="offset" />
          </mxGeometry>
        </mxCell>
        <mxCell id="Ss3X30y5o6bt5deMh3Y2-15" value="item" style="edgeLabel;html=1;align=center;verticalAlign=middle;resizable=0;points=[];" vertex="1" connectable="0" parent="Ss3X30y5o6bt5deMh3Y2-12">
          <mxGeometry x="0.5818" y="-2" relative="1" as="geometry">
            <mxPoint x="-18" y="5" as="offset" />
          </mxGeometry>
        </mxCell>
        <mxCell id="Ss3X30y5o6bt5deMh3Y2-16" value="1" style="edgeLabel;html=1;align=center;verticalAlign=middle;resizable=0;points=[];" vertex="1" connectable="0" parent="Ss3X30y5o6bt5deMh3Y2-12">
          <mxGeometry x="0.7273" y="1" relative="1" as="geometry">
            <mxPoint x="10" as="offset" />
          </mxGeometry>
        </mxCell>
        <mxCell id="Ss3X30y5o6bt5deMh3Y2-17" value="OrderEntry" style="html=1;verticalAlign=bottom;labelBackgroundColor=none;startArrow=oval;startFill=0;startSize=8;endArrow=none;rounded=0;entryX=0;entryY=0.5;entryDx=0;entryDy=0;" edge="1" parent="1" target="Ss3X30y5o6bt5deMh3Y2-8">
          <mxGeometry x="-1" y="3" relative="1" as="geometry">
            <mxPoint x="40" y="217" as="sourcePoint" />
            <mxPoint x="110" y="200" as="targetPoint" />
          </mxGeometry>
        </mxCell>
        <mxCell id="Ss3X30y5o6bt5deMh3Y2-18" value="&lt;b&gt;Figure 11.45 An alternative nested representation of a complex Component&lt;/b&gt;" style="text;html=1;align=left;verticalAlign=middle;resizable=0;points=[];autosize=1;strokeColor=none;fillColor=none;" vertex="1" parent="1">
          <mxGeometry x="40" y="320" width="450" height="30" as="geometry" />
        </mxCell>
      </root>
    </mxGraphModel>
  </diagram>
  <diagram id="gcT-vRh5UBMwlaqsqbN-" name="11.46">
    <mxGraphModel dx="880" dy="545" grid="1" gridSize="10" guides="1" tooltips="1" connect="1" arrows="1" fold="1" page="1" pageScale="1" pageWidth="1169" pageHeight="827" math="0" shadow="0">
      <root>
        <mxCell id="0" />
        <mxCell id="1" parent="0" />
        <mxCell id="1bEfar6wiGfFokiGZjMI-1" value="" style="fontStyle=1;align=center;verticalAlign=middle;childLayout=stackLayout;horizontal=1;horizontalStack=0;resizeParent=1;resizeParentMax=0;resizeLast=0;marginBottom=0;" vertex="1" parent="1">
          <mxGeometry x="290" y="40" width="330" height="280" as="geometry" />
        </mxCell>
        <mxCell id="1bEfar6wiGfFokiGZjMI-2" value="«component»&lt;br&gt;&lt;b&gt;Order&lt;/b&gt;" style="html=1;align=center;spacingLeft=4;verticalAlign=top;strokeColor=none;fillColor=none;whiteSpace=wrap;" vertex="1" parent="1bEfar6wiGfFokiGZjMI-1">
          <mxGeometry width="330" height="40" as="geometry" />
        </mxCell>
        <mxCell id="1bEfar6wiGfFokiGZjMI-3" value="" style="shape=module;jettyWidth=10;jettyHeight=4;" vertex="1" parent="1bEfar6wiGfFokiGZjMI-2">
          <mxGeometry x="1" width="16" height="20" relative="1" as="geometry">
            <mxPoint x="-25" y="9" as="offset" />
          </mxGeometry>
        </mxCell>
        <mxCell id="1bEfar6wiGfFokiGZjMI-4" value="" style="line;strokeWidth=1;fillColor=none;align=left;verticalAlign=middle;spacingTop=-1;spacingLeft=3;spacingRight=3;rotatable=0;labelPosition=right;points=[];portConstraint=eastwest;" vertex="1" parent="1bEfar6wiGfFokiGZjMI-1">
          <mxGeometry y="40" width="330" height="8" as="geometry" />
        </mxCell>
        <mxCell id="1bEfar6wiGfFokiGZjMI-5" value="packaged elements" style="html=1;align=center;spacingLeft=4;verticalAlign=top;strokeColor=none;fillColor=none;whiteSpace=wrap;" vertex="1" parent="1bEfar6wiGfFokiGZjMI-1">
          <mxGeometry y="48" width="330" height="25" as="geometry" />
        </mxCell>
        <mxCell id="1bEfar6wiGfFokiGZjMI-6" style="rounded=0;orthogonalLoop=1;jettySize=auto;html=1;verticalAlign=bottom;labelBackgroundColor=none;startArrow=halfCircle;startFill=0;startSize=2;endArrow=none;entryX=1;entryY=0.5;entryDx=0;entryDy=0;" edge="1" parent="1bEfar6wiGfFokiGZjMI-1" target="1bEfar6wiGfFokiGZjMI-8">
          <mxGeometry relative="1" as="geometry">
            <mxPoint x="360" y="177" as="sourcePoint" />
          </mxGeometry>
        </mxCell>
        <mxCell id="1bEfar6wiGfFokiGZjMI-7" value="OrderableItem" style="edgeLabel;html=1;align=center;verticalAlign=middle;resizable=0;points=[];" vertex="1" connectable="0" parent="1bEfar6wiGfFokiGZjMI-6">
          <mxGeometry x="-0.2532" y="2" relative="1" as="geometry">
            <mxPoint x="21" y="-17" as="offset" />
          </mxGeometry>
        </mxCell>
        <mxCell id="1bEfar6wiGfFokiGZjMI-8" value="&amp;nbsp;" style="html=1;align=left;spacingLeft=4;verticalAlign=top;strokeColor=none;fillColor=none;whiteSpace=wrap;" vertex="1" parent="1bEfar6wiGfFokiGZjMI-1">
          <mxGeometry y="73" width="330" height="207" as="geometry" />
        </mxCell>
        <mxCell id="1bEfar6wiGfFokiGZjMI-9" value="" style="group" vertex="1" connectable="0" parent="1">
          <mxGeometry x="405" y="135" width="100" height="170" as="geometry" />
        </mxCell>
        <mxCell id="1bEfar6wiGfFokiGZjMI-10" value="«Focus»&lt;br&gt;&lt;b&gt;OrderHeader&lt;/b&gt;" style="whiteSpace=wrap;html=1;" vertex="1" parent="1bEfar6wiGfFokiGZjMI-9">
          <mxGeometry y="-20" width="100" height="50" as="geometry" />
        </mxCell>
        <mxCell id="1bEfar6wiGfFokiGZjMI-11" value="&lt;b&gt;LineItem&lt;/b&gt;" style="whiteSpace=wrap;html=1;" vertex="1" parent="1bEfar6wiGfFokiGZjMI-9">
          <mxGeometry y="140" width="100" height="30" as="geometry" />
        </mxCell>
        <mxCell id="1bEfar6wiGfFokiGZjMI-12" style="edgeStyle=orthogonalEdgeStyle;rounded=0;orthogonalLoop=1;jettySize=auto;html=1;startArrow=diamondThin;startFill=1;startSize=12;endArrow=none;endFill=0;" edge="1" parent="1bEfar6wiGfFokiGZjMI-9" source="1bEfar6wiGfFokiGZjMI-10" target="1bEfar6wiGfFokiGZjMI-11">
          <mxGeometry relative="1" as="geometry" />
        </mxCell>
        <mxCell id="1bEfar6wiGfFokiGZjMI-13" value="1" style="edgeLabel;html=1;align=center;verticalAlign=middle;resizable=0;points=[];" vertex="1" connectable="0" parent="1bEfar6wiGfFokiGZjMI-12">
          <mxGeometry x="-0.5818" relative="1" as="geometry">
            <mxPoint x="10" as="offset" />
          </mxGeometry>
        </mxCell>
        <mxCell id="1bEfar6wiGfFokiGZjMI-14" value="order" style="edgeLabel;html=1;align=center;verticalAlign=middle;resizable=0;points=[];" vertex="1" connectable="0" parent="1bEfar6wiGfFokiGZjMI-12">
          <mxGeometry x="-0.5818" relative="1" as="geometry">
            <mxPoint x="-20" as="offset" />
          </mxGeometry>
        </mxCell>
        <mxCell id="1bEfar6wiGfFokiGZjMI-15" value="item" style="edgeLabel;html=1;align=center;verticalAlign=middle;resizable=0;points=[];" vertex="1" connectable="0" parent="1bEfar6wiGfFokiGZjMI-12">
          <mxGeometry x="0.5818" y="-2" relative="1" as="geometry">
            <mxPoint x="-18" y="5" as="offset" />
          </mxGeometry>
        </mxCell>
        <mxCell id="1bEfar6wiGfFokiGZjMI-16" value="1" style="edgeLabel;html=1;align=center;verticalAlign=middle;resizable=0;points=[];" vertex="1" connectable="0" parent="1bEfar6wiGfFokiGZjMI-12">
          <mxGeometry x="0.7273" y="1" relative="1" as="geometry">
            <mxPoint x="10" as="offset" />
          </mxGeometry>
        </mxCell>
        <mxCell id="1bEfar6wiGfFokiGZjMI-17" value="«component»&lt;br&gt;&lt;b&gt;Product&lt;/b&gt;" style="html=1;dropTarget=0;whiteSpace=wrap;" vertex="1" parent="1">
          <mxGeometry x="740" y="280" width="150" height="60" as="geometry" />
        </mxCell>
        <mxCell id="1bEfar6wiGfFokiGZjMI-18" value="" style="shape=module;jettyWidth=8;jettyHeight=4;" vertex="1" parent="1bEfar6wiGfFokiGZjMI-17">
          <mxGeometry x="1" width="20" height="20" relative="1" as="geometry">
            <mxPoint x="-27" y="7" as="offset" />
          </mxGeometry>
        </mxCell>
        <mxCell id="1bEfar6wiGfFokiGZjMI-19" value="/OrderableItem" style="html=1;verticalAlign=top;labelBackgroundColor=none;startArrow=oval;startFill=0;startSize=8;endArrow=none;rounded=0;" edge="1" parent="1" target="1bEfar6wiGfFokiGZjMI-17">
          <mxGeometry x="-1" y="3" relative="1" as="geometry">
            <mxPoint x="700" y="310" as="sourcePoint" />
            <mxPoint x="760" y="309.5" as="targetPoint" />
          </mxGeometry>
        </mxCell>
        <mxCell id="1bEfar6wiGfFokiGZjMI-20" value="" style="endArrow=openThin;startArrow=none;endFill=0;startFill=0;endSize=12;html=1;verticalAlign=bottom;dashed=1;labelBackgroundColor=none;rounded=0;" edge="1" parent="1">
          <mxGeometry width="160" relative="1" as="geometry">
            <mxPoint x="650" y="217" as="sourcePoint" />
            <mxPoint x="700" y="310" as="targetPoint" />
          </mxGeometry>
        </mxCell>
        <mxCell id="1bEfar6wiGfFokiGZjMI-21" value="«component»&lt;br&gt;&lt;b&gt;Account&lt;/b&gt;" style="html=1;dropTarget=0;whiteSpace=wrap;" vertex="1" parent="1">
          <mxGeometry y="40" width="150" height="60" as="geometry" />
        </mxCell>
        <mxCell id="1bEfar6wiGfFokiGZjMI-22" value="" style="shape=module;jettyWidth=8;jettyHeight=4;" vertex="1" parent="1bEfar6wiGfFokiGZjMI-21">
          <mxGeometry x="1" width="20" height="20" relative="1" as="geometry">
            <mxPoint x="-27" y="7" as="offset" />
          </mxGeometry>
        </mxCell>
        <mxCell id="1bEfar6wiGfFokiGZjMI-23" value="" style="group" vertex="1" connectable="0" parent="1">
          <mxGeometry x="145" y="64" width="60" height="10" as="geometry" />
        </mxCell>
        <mxCell id="1bEfar6wiGfFokiGZjMI-24" value="" style="html=1;rounded=0;align=left;verticalAlign=bottom;labelPosition=right;verticalLabelPosition=top;fontSize=11;direction=south;" vertex="1" parent="1bEfar6wiGfFokiGZjMI-23">
          <mxGeometry width="10" height="10" as="geometry" />
        </mxCell>
        <mxCell id="1bEfar6wiGfFokiGZjMI-25" value="" style="endArrow=none;html=1;rounded=0;align=center;verticalAlign=top;endFill=0;labelBackgroundColor=none;endSize=2;" edge="1" parent="1bEfar6wiGfFokiGZjMI-23" source="1bEfar6wiGfFokiGZjMI-24" target="1bEfar6wiGfFokiGZjMI-26">
          <mxGeometry relative="1" as="geometry" />
        </mxCell>
        <mxCell id="1bEfar6wiGfFokiGZjMI-26" value="AccountPayable" style="ellipse;html=1;fontSize=11;align=left;fillColor=none;points=[];aspect=fixed;resizable=0;verticalAlign=bottom;labelPosition=right;verticalLabelPosition=top;flipH=1;" vertex="1" parent="1bEfar6wiGfFokiGZjMI-23">
          <mxGeometry x="38" y="1" width="8" height="8" as="geometry" />
        </mxCell>
        <mxCell id="1bEfar6wiGfFokiGZjMI-27" value="" style="html=1;rounded=0;verticalAlign=top;align=left;rotation=-180;flipV=1;" vertex="1" parent="1">
          <mxGeometry x="285" y="135" width="10" height="10" as="geometry" />
        </mxCell>
        <mxCell id="1bEfar6wiGfFokiGZjMI-28" value="" style="endArrow=none;html=1;rounded=0;align=center;verticalAlign=top;endFill=0;labelBackgroundColor=none;endSize=2;" edge="1" parent="1" source="1bEfar6wiGfFokiGZjMI-27" target="1bEfar6wiGfFokiGZjMI-30">
          <mxGeometry relative="1" as="geometry" />
        </mxCell>
        <mxCell id="1bEfar6wiGfFokiGZjMI-29" value="AccountPayable" style="edgeLabel;html=1;align=center;verticalAlign=middle;resizable=0;points=[];" vertex="1" connectable="0" parent="1bEfar6wiGfFokiGZjMI-28">
          <mxGeometry x="0.4963" relative="1" as="geometry">
            <mxPoint x="-16" y="15" as="offset" />
          </mxGeometry>
        </mxCell>
        <mxCell id="1bEfar6wiGfFokiGZjMI-30" value="" style="shape=requiredInterface;html=1;fontSize=11;align=center;fillColor=none;points=[];aspect=fixed;resizable=0;verticalAlign=bottom;labelPosition=center;verticalLabelPosition=top;flipH=1;rotation=-180;" vertex="1" parent="1">
          <mxGeometry x="235" y="135" width="5" height="10" as="geometry" />
        </mxCell>
        <mxCell id="1bEfar6wiGfFokiGZjMI-31" value="" style="edgeStyle=none;orthogonalLoop=1;jettySize=auto;html=1;rounded=0;entryX=-0.25;entryY=0.438;entryDx=0;entryDy=0;entryPerimeter=0;dashed=1;endArrow=openThin;endFill=0;endSize=12;" edge="1" parent="1" source="1bEfar6wiGfFokiGZjMI-30" target="1bEfar6wiGfFokiGZjMI-26">
          <mxGeometry width="100" relative="1" as="geometry">
            <mxPoint x="190" y="140" as="sourcePoint" />
            <mxPoint x="290" y="140" as="targetPoint" />
            <Array as="points" />
          </mxGeometry>
        </mxCell>
        <mxCell id="1bEfar6wiGfFokiGZjMI-32" value="&lt;div&gt;&lt;b&gt;Figure 11.46 Example model of a Component, its provided and required Interfaces, and wiring through&lt;/b&gt;&lt;/div&gt;&lt;div&gt;&lt;b&gt;Dependencies&lt;/b&gt;&lt;/div&gt;" style="text;html=1;align=left;verticalAlign=middle;resizable=0;points=[];autosize=1;strokeColor=none;fillColor=none;" vertex="1" parent="1">
          <mxGeometry y="330" width="600" height="40" as="geometry" />
        </mxCell>
      </root>
    </mxGraphModel>
  </diagram>
  <diagram id="SmAmpzIQUD7jvmi5b5m6" name="11.47">
    <mxGraphModel dx="880" dy="545" grid="1" gridSize="10" guides="1" tooltips="1" connect="1" arrows="1" fold="1" page="1" pageScale="1" pageWidth="1169" pageHeight="827" math="0" shadow="0">
      <root>
        <mxCell id="0" />
        <mxCell id="1" parent="0" />
        <mxCell id="i9WpY5PMIRhc7UNZ0Iy_-1" value="Account" style="rounded=0;orthogonalLoop=1;jettySize=auto;html=1;endArrow=halfCircle;endFill=0;endSize=4;strokeWidth=1;sketch=0;fontSize=12;curved=1;" edge="1" parent="1">
          <mxGeometry x="1" y="22" relative="1" as="geometry">
            <mxPoint x="652.39" y="322" as="sourcePoint" />
            <mxPoint x="702.39" y="322" as="targetPoint" />
            <mxPoint as="offset" />
          </mxGeometry>
        </mxCell>
        <mxCell id="i9WpY5PMIRhc7UNZ0Iy_-2" value="" style="fontStyle=1;align=center;verticalAlign=middle;childLayout=stackLayout;horizontal=1;horizontalStack=0;resizeParent=1;resizeParentMax=0;resizeLast=0;marginBottom=0;" vertex="1" parent="1">
          <mxGeometry x="92.38999999999999" y="40" width="560" height="360" as="geometry" />
        </mxCell>
        <mxCell id="i9WpY5PMIRhc7UNZ0Iy_-3" value="«component»&lt;br&gt;&lt;b&gt;Store&lt;/b&gt;" style="html=1;align=center;spacingLeft=4;verticalAlign=top;strokeColor=none;fillColor=none;whiteSpace=wrap;" vertex="1" parent="i9WpY5PMIRhc7UNZ0Iy_-2">
          <mxGeometry width="560" height="40" as="geometry" />
        </mxCell>
        <mxCell id="i9WpY5PMIRhc7UNZ0Iy_-4" value="" style="shape=module;jettyWidth=10;jettyHeight=4;" vertex="1" parent="i9WpY5PMIRhc7UNZ0Iy_-3">
          <mxGeometry x="1" width="16" height="20" relative="1" as="geometry">
            <mxPoint x="-25" y="9" as="offset" />
          </mxGeometry>
        </mxCell>
        <mxCell id="i9WpY5PMIRhc7UNZ0Iy_-5" value="" style="line;strokeWidth=1;fillColor=none;align=left;verticalAlign=middle;spacingTop=-1;spacingLeft=3;spacingRight=3;rotatable=0;labelPosition=right;points=[];portConstraint=eastwest;" vertex="1" parent="i9WpY5PMIRhc7UNZ0Iy_-2">
          <mxGeometry y="40" width="560" height="8" as="geometry" />
        </mxCell>
        <mxCell id="i9WpY5PMIRhc7UNZ0Iy_-6" value="internal structure" style="align=center;spacingLeft=4;verticalAlign=top;strokeColor=none;fillColor=none;" vertex="1" parent="i9WpY5PMIRhc7UNZ0Iy_-2">
          <mxGeometry y="48" width="560" height="312" as="geometry" />
        </mxCell>
        <mxCell id="i9WpY5PMIRhc7UNZ0Iy_-7" style="edgeStyle=orthogonalEdgeStyle;rounded=0;orthogonalLoop=1;jettySize=auto;html=1;exitX=0;exitY=0.5;exitDx=0;exitDy=0;exitPerimeter=0;entryX=0;entryY=0.5;entryDx=0;entryDy=0;endArrow=none;endFill=0;" edge="1" parent="1" source="i9WpY5PMIRhc7UNZ0Iy_-9" target="i9WpY5PMIRhc7UNZ0Iy_-19">
          <mxGeometry relative="1" as="geometry" />
        </mxCell>
        <mxCell id="i9WpY5PMIRhc7UNZ0Iy_-8" style="edgeStyle=orthogonalEdgeStyle;rounded=0;orthogonalLoop=1;jettySize=auto;html=1;exitX=1;exitY=0.5;exitDx=0;exitDy=0;exitPerimeter=0;entryX=1;entryY=0.5;entryDx=0;entryDy=0;endArrow=none;endFill=0;" edge="1" parent="1" source="i9WpY5PMIRhc7UNZ0Iy_-9" target="i9WpY5PMIRhc7UNZ0Iy_-13">
          <mxGeometry relative="1" as="geometry" />
        </mxCell>
        <mxCell id="i9WpY5PMIRhc7UNZ0Iy_-9" value="Person" style="shape=providedRequiredInterface;html=1;verticalLabelPosition=bottom;sketch=0;direction=west;verticalAlign=bottom;" vertex="1" parent="1">
          <mxGeometry x="372.39" y="168.5" width="20" height="20" as="geometry" />
        </mxCell>
        <mxCell id="i9WpY5PMIRhc7UNZ0Iy_-10" style="edgeStyle=orthogonalEdgeStyle;rounded=0;orthogonalLoop=1;jettySize=auto;html=1;exitX=0.5;exitY=1;exitDx=0;exitDy=0;entryX=1;entryY=0.5;entryDx=0;entryDy=0;entryPerimeter=0;endArrow=none;endFill=0;" edge="1" parent="1" source="i9WpY5PMIRhc7UNZ0Iy_-13" target="i9WpY5PMIRhc7UNZ0Iy_-21">
          <mxGeometry relative="1" as="geometry" />
        </mxCell>
        <mxCell id="i9WpY5PMIRhc7UNZ0Iy_-11" style="edgeStyle=orthogonalEdgeStyle;rounded=0;orthogonalLoop=1;jettySize=auto;html=1;exitX=0;exitY=0.5;exitDx=0;exitDy=0;entryX=-0.001;entryY=0.116;entryDx=0;entryDy=0;entryPerimeter=0;endArrow=none;endFill=0;" edge="1" parent="1" source="i9WpY5PMIRhc7UNZ0Iy_-13" target="i9WpY5PMIRhc7UNZ0Iy_-6">
          <mxGeometry relative="1" as="geometry">
            <Array as="points">
              <mxPoint x="132.39" y="179" />
              <mxPoint x="132.39" y="124" />
            </Array>
          </mxGeometry>
        </mxCell>
        <mxCell id="i9WpY5PMIRhc7UNZ0Iy_-12" value="OrderEntry" style="edgeLabel;html=1;align=center;verticalAlign=middle;resizable=0;points=[];" vertex="1" connectable="0" parent="i9WpY5PMIRhc7UNZ0Iy_-11">
          <mxGeometry x="-0.5462" y="1" relative="1" as="geometry">
            <mxPoint x="-11" y="12" as="offset" />
          </mxGeometry>
        </mxCell>
        <mxCell id="i9WpY5PMIRhc7UNZ0Iy_-13" value="«component»&lt;br&gt;&lt;b&gt;:Order&lt;/b&gt;" style="html=1;dropTarget=0;whiteSpace=wrap;" vertex="1" parent="1">
          <mxGeometry x="187.39" y="147" width="140" height="63" as="geometry" />
        </mxCell>
        <mxCell id="i9WpY5PMIRhc7UNZ0Iy_-14" value="" style="shape=module;jettyWidth=8;jettyHeight=4;" vertex="1" parent="i9WpY5PMIRhc7UNZ0Iy_-13">
          <mxGeometry x="1" width="20" height="20" relative="1" as="geometry">
            <mxPoint x="-27" y="7" as="offset" />
          </mxGeometry>
        </mxCell>
        <mxCell id="i9WpY5PMIRhc7UNZ0Iy_-15" style="edgeStyle=orthogonalEdgeStyle;rounded=0;orthogonalLoop=1;jettySize=auto;html=1;exitX=0.5;exitY=0;exitDx=0;exitDy=0;entryX=0;entryY=0.5;entryDx=0;entryDy=0;entryPerimeter=0;endArrow=none;endFill=0;" edge="1" parent="1" source="i9WpY5PMIRhc7UNZ0Iy_-17" target="i9WpY5PMIRhc7UNZ0Iy_-21">
          <mxGeometry relative="1" as="geometry" />
        </mxCell>
        <mxCell id="i9WpY5PMIRhc7UNZ0Iy_-16" value="OrderableItem" style="edgeLabel;html=1;align=center;verticalAlign=middle;resizable=0;points=[];" vertex="1" connectable="0" parent="i9WpY5PMIRhc7UNZ0Iy_-15">
          <mxGeometry x="0.0811" relative="1" as="geometry">
            <mxPoint x="40" as="offset" />
          </mxGeometry>
        </mxCell>
        <mxCell id="i9WpY5PMIRhc7UNZ0Iy_-17" value="«component»&lt;br&gt;&lt;b&gt;:Product&lt;/b&gt;" style="html=1;dropTarget=0;whiteSpace=wrap;" vertex="1" parent="1">
          <mxGeometry x="187.39" y="307" width="140" height="63" as="geometry" />
        </mxCell>
        <mxCell id="i9WpY5PMIRhc7UNZ0Iy_-18" value="" style="shape=module;jettyWidth=8;jettyHeight=4;" vertex="1" parent="i9WpY5PMIRhc7UNZ0Iy_-17">
          <mxGeometry x="1" width="20" height="20" relative="1" as="geometry">
            <mxPoint x="-27" y="7" as="offset" />
          </mxGeometry>
        </mxCell>
        <mxCell id="i9WpY5PMIRhc7UNZ0Iy_-19" value="«component»&lt;br&gt;&lt;b&gt;:Customer&lt;/b&gt;" style="html=1;dropTarget=0;whiteSpace=wrap;" vertex="1" parent="1">
          <mxGeometry x="427.39" y="147" width="140" height="63" as="geometry" />
        </mxCell>
        <mxCell id="i9WpY5PMIRhc7UNZ0Iy_-20" value="" style="shape=module;jettyWidth=8;jettyHeight=4;" vertex="1" parent="i9WpY5PMIRhc7UNZ0Iy_-19">
          <mxGeometry x="1" width="20" height="20" relative="1" as="geometry">
            <mxPoint x="-27" y="7" as="offset" />
          </mxGeometry>
        </mxCell>
        <mxCell id="i9WpY5PMIRhc7UNZ0Iy_-21" value="" style="shape=providedRequiredInterface;html=1;verticalLabelPosition=bottom;sketch=0;direction=north;" vertex="1" parent="1">
          <mxGeometry x="247.39" y="250" width="20" height="20" as="geometry" />
        </mxCell>
        <mxCell id="i9WpY5PMIRhc7UNZ0Iy_-22" style="edgeStyle=orthogonalEdgeStyle;rounded=0;orthogonalLoop=1;jettySize=auto;html=1;exitX=1;exitY=0.5;exitDx=0;exitDy=0;exitPerimeter=0;entryX=0.5;entryY=1;entryDx=0;entryDy=0;endArrow=none;endFill=0;" edge="1" parent="1" source="i9WpY5PMIRhc7UNZ0Iy_-24" target="i9WpY5PMIRhc7UNZ0Iy_-19">
          <mxGeometry relative="1" as="geometry" />
        </mxCell>
        <mxCell id="i9WpY5PMIRhc7UNZ0Iy_-23" value="Account" style="edgeLabel;html=1;align=center;verticalAlign=middle;resizable=0;points=[];" vertex="1" connectable="0" parent="i9WpY5PMIRhc7UNZ0Iy_-22">
          <mxGeometry x="-0.45" y="1" relative="1" as="geometry">
            <mxPoint x="-25" as="offset" />
          </mxGeometry>
        </mxCell>
        <mxCell id="i9WpY5PMIRhc7UNZ0Iy_-24" value="" style="shape=providedRequiredInterface;html=1;verticalLabelPosition=bottom;sketch=0;rotation=0;direction=north;" vertex="1" parent="1">
          <mxGeometry x="487.39" y="250" width="20" height="20" as="geometry" />
        </mxCell>
        <mxCell id="i9WpY5PMIRhc7UNZ0Iy_-25" style="edgeStyle=orthogonalEdgeStyle;rounded=0;orthogonalLoop=1;jettySize=auto;html=1;exitX=0;exitY=0.5;exitDx=0;exitDy=0;endArrow=oval;endFill=0;endSize=12;" edge="1" parent="1" source="i9WpY5PMIRhc7UNZ0Iy_-27">
          <mxGeometry relative="1" as="geometry">
            <mxPoint x="32.389999999999986" y="124" as="targetPoint" />
          </mxGeometry>
        </mxCell>
        <mxCell id="i9WpY5PMIRhc7UNZ0Iy_-26" value="OrderEntry" style="edgeLabel;html=1;align=center;verticalAlign=middle;resizable=0;points=[];" vertex="1" connectable="0" parent="i9WpY5PMIRhc7UNZ0Iy_-25">
          <mxGeometry x="0.8739" y="2" relative="1" as="geometry">
            <mxPoint x="-5" y="-20" as="offset" />
          </mxGeometry>
        </mxCell>
        <mxCell id="i9WpY5PMIRhc7UNZ0Iy_-27" value="" style="fontStyle=0;labelPosition=right;verticalLabelPosition=middle;align=left;verticalAlign=middle;spacingLeft=2;" vertex="1" parent="1">
          <mxGeometry x="87.38999999999999" y="119" width="10" height="10" as="geometry" />
        </mxCell>
        <mxCell id="i9WpY5PMIRhc7UNZ0Iy_-28" value="" style="fontStyle=0;labelPosition=right;verticalLabelPosition=middle;align=left;verticalAlign=middle;spacingLeft=2;" vertex="1" parent="1">
          <mxGeometry x="252.39" y="205" width="10" height="10" as="geometry" />
        </mxCell>
        <mxCell id="i9WpY5PMIRhc7UNZ0Iy_-29" value="" style="fontStyle=0;labelPosition=right;verticalLabelPosition=middle;align=left;verticalAlign=middle;spacingLeft=2;" vertex="1" parent="1">
          <mxGeometry x="252.39" y="304" width="10" height="10" as="geometry" />
        </mxCell>
        <mxCell id="i9WpY5PMIRhc7UNZ0Iy_-30" value="" style="fontStyle=0;labelPosition=right;verticalLabelPosition=middle;align=left;verticalAlign=middle;spacingLeft=2;" vertex="1" parent="1">
          <mxGeometry x="322.39" y="174" width="10" height="10" as="geometry" />
        </mxCell>
        <mxCell id="i9WpY5PMIRhc7UNZ0Iy_-31" value="" style="fontStyle=0;labelPosition=right;verticalLabelPosition=middle;align=left;verticalAlign=middle;spacingLeft=2;" vertex="1" parent="1">
          <mxGeometry x="422.39" y="174" width="10" height="10" as="geometry" />
        </mxCell>
        <mxCell id="i9WpY5PMIRhc7UNZ0Iy_-32" value="" style="fontStyle=0;labelPosition=right;verticalLabelPosition=middle;align=left;verticalAlign=middle;spacingLeft=2;" vertex="1" parent="1">
          <mxGeometry x="492.39" y="205" width="10" height="10" as="geometry" />
        </mxCell>
        <mxCell id="i9WpY5PMIRhc7UNZ0Iy_-33" style="edgeStyle=orthogonalEdgeStyle;rounded=0;orthogonalLoop=1;jettySize=auto;html=1;exitX=1;exitY=0.75;exitDx=0;exitDy=0;entryX=0;entryY=0.5;entryDx=0;entryDy=0;entryPerimeter=0;endArrow=none;endFill=0;" edge="1" parent="1" source="i9WpY5PMIRhc7UNZ0Iy_-6" target="i9WpY5PMIRhc7UNZ0Iy_-24">
          <mxGeometry relative="1" as="geometry">
            <Array as="points">
              <mxPoint x="497.39" y="322" />
            </Array>
          </mxGeometry>
        </mxCell>
        <mxCell id="i9WpY5PMIRhc7UNZ0Iy_-34" value="" style="fontStyle=0;labelPosition=right;verticalLabelPosition=middle;align=left;verticalAlign=middle;spacingLeft=2;" vertex="1" parent="1">
          <mxGeometry x="647.39" y="317" width="10" height="10" as="geometry" />
        </mxCell>
        <mxCell id="i9WpY5PMIRhc7UNZ0Iy_-35" value="" style="ellipse;whiteSpace=wrap;html=1;align=center;aspect=fixed;fillColor=none;strokeColor=none;resizable=0;perimeter=centerPerimeter;rotatable=0;allowArrows=0;points=[];outlineConnect=1;" vertex="1" parent="1">
          <mxGeometry x="662.39" y="316" width="10" height="10" as="geometry" />
        </mxCell>
        <mxCell id="i9WpY5PMIRhc7UNZ0Iy_-36" value="" style="fontStyle=0;labelPosition=right;verticalLabelPosition=middle;align=left;verticalAlign=middle;spacingLeft=2;" vertex="1" parent="1">
          <mxGeometry x="182.39" y="173" width="10" height="10" as="geometry" />
        </mxCell>
        <mxCell id="i9WpY5PMIRhc7UNZ0Iy_-37" value="" style="ellipse;whiteSpace=wrap;html=1;aspect=fixed;" vertex="1" parent="1">
          <mxGeometry x="152.39" y="173" width="10" height="10" as="geometry" />
        </mxCell>
        <mxCell id="i9WpY5PMIRhc7UNZ0Iy_-38" value="&lt;b&gt;Figure 11.47 Internal structure of a Component&lt;/b&gt;" style="text;html=1;align=left;verticalAlign=middle;resizable=0;points=[];autosize=1;strokeColor=none;fillColor=none;" vertex="1" parent="1">
          <mxGeometry y="400" width="290" height="30" as="geometry" />
        </mxCell>
      </root>
    </mxGraphModel>
  </diagram>
  <diagram id="rRvvXLHF3hh38YbOoNtM" name="11.48">
    <mxGraphModel dx="880" dy="545" grid="1" gridSize="10" guides="1" tooltips="1" connect="1" arrows="1" fold="1" page="1" pageScale="1" pageWidth="1169" pageHeight="827" math="0" shadow="0">
      <root>
        <mxCell id="0" />
        <mxCell id="1" parent="0" />
        <mxCell id="Cn2aemH8Tb-rtELG62hV-1" value="" style="html=1;verticalAlign=bottom;labelBackgroundColor=none;endArrow=halfCircle;endFill=0;endSize=2;rounded=0;" edge="1" parent="1">
          <mxGeometry width="160" relative="1" as="geometry">
            <mxPoint x="480" y="180" as="sourcePoint" />
            <mxPoint x="510" y="180" as="targetPoint" />
          </mxGeometry>
        </mxCell>
        <mxCell id="Cn2aemH8Tb-rtELG62hV-2" value="Person" style="edgeLabel;html=1;align=center;verticalAlign=middle;resizable=0;points=[];" vertex="1" connectable="0" parent="Cn2aemH8Tb-rtELG62hV-1">
          <mxGeometry x="0.0222" y="-1" relative="1" as="geometry">
            <mxPoint x="11" y="-15" as="offset" />
          </mxGeometry>
        </mxCell>
        <mxCell id="Cn2aemH8Tb-rtELG62hV-3" value="" style="html=1;verticalAlign=bottom;labelBackgroundColor=none;endArrow=oval;endFill=0;endSize=8;rounded=0;" edge="1" parent="1">
          <mxGeometry width="160" relative="1" as="geometry">
            <mxPoint x="80" y="114" as="sourcePoint" />
            <mxPoint x="39.16666666666666" y="114" as="targetPoint" />
          </mxGeometry>
        </mxCell>
        <mxCell id="Cn2aemH8Tb-rtELG62hV-4" value="OrderEntry" style="edgeLabel;html=1;align=center;verticalAlign=middle;resizable=0;points=[];" vertex="1" connectable="0" parent="Cn2aemH8Tb-rtELG62hV-3">
          <mxGeometry x="0.249" relative="1" as="geometry">
            <mxPoint x="-17" y="-14" as="offset" />
          </mxGeometry>
        </mxCell>
        <mxCell id="Cn2aemH8Tb-rtELG62hV-5" value="" style="fontStyle=1;align=center;verticalAlign=top;childLayout=stackLayout;horizontal=1;horizontalStack=0;resizeParent=1;resizeParentMax=0;resizeLast=0;marginBottom=0;" vertex="1" parent="1">
          <mxGeometry x="80" y="40" width="400" height="320" as="geometry" />
        </mxCell>
        <mxCell id="Cn2aemH8Tb-rtELG62hV-6" value="«component»&lt;br&gt;&lt;b&gt;Order&lt;/b&gt;" style="html=1;align=center;spacingLeft=4;verticalAlign=middle;strokeColor=none;fillColor=none;whiteSpace=wrap;" vertex="1" parent="Cn2aemH8Tb-rtELG62hV-5">
          <mxGeometry width="400" height="40" as="geometry" />
        </mxCell>
        <mxCell id="Cn2aemH8Tb-rtELG62hV-7" value="" style="shape=module;jettyWidth=10;jettyHeight=4;" vertex="1" parent="Cn2aemH8Tb-rtELG62hV-6">
          <mxGeometry x="1" width="16" height="20" relative="1" as="geometry">
            <mxPoint x="-25" y="9" as="offset" />
          </mxGeometry>
        </mxCell>
        <mxCell id="Cn2aemH8Tb-rtELG62hV-8" value="" style="line;strokeWidth=1;fillColor=none;align=left;verticalAlign=middle;spacingTop=-1;spacingLeft=3;spacingRight=3;rotatable=0;labelPosition=right;points=[];portConstraint=eastwest;" vertex="1" parent="Cn2aemH8Tb-rtELG62hV-5">
          <mxGeometry y="40" width="400" height="8" as="geometry" />
        </mxCell>
        <mxCell id="Cn2aemH8Tb-rtELG62hV-9" value="internal structure" style="html=1;align=center;spacingLeft=4;verticalAlign=top;strokeColor=none;fillColor=none;whiteSpace=wrap;" vertex="1" parent="Cn2aemH8Tb-rtELG62hV-5">
          <mxGeometry y="48" width="400" height="182" as="geometry" />
        </mxCell>
        <mxCell id="Cn2aemH8Tb-rtELG62hV-10" value="" style="line;strokeWidth=1;fillColor=none;align=left;verticalAlign=middle;spacingTop=-1;spacingLeft=3;spacingRight=3;rotatable=0;labelPosition=right;points=[];portConstraint=eastwest;" vertex="1" parent="Cn2aemH8Tb-rtELG62hV-5">
          <mxGeometry y="230" width="400" height="8" as="geometry" />
        </mxCell>
        <mxCell id="Cn2aemH8Tb-rtELG62hV-11" value="packaged elements" style="html=1;align=center;spacingLeft=4;verticalAlign=top;strokeColor=none;fillColor=none;whiteSpace=wrap;" vertex="1" parent="Cn2aemH8Tb-rtELG62hV-5">
          <mxGeometry y="238" width="400" height="82" as="geometry" />
        </mxCell>
        <mxCell id="Cn2aemH8Tb-rtELG62hV-12" style="edgeStyle=orthogonalEdgeStyle;rounded=0;orthogonalLoop=1;jettySize=auto;html=1;exitX=0.5;exitY=1;exitDx=0;exitDy=0;entryX=0.5;entryY=0;entryDx=0;entryDy=0;endArrow=none;endFill=0;" edge="1" parent="1" source="Cn2aemH8Tb-rtELG62hV-14" target="Cn2aemH8Tb-rtELG62hV-17">
          <mxGeometry relative="1" as="geometry" />
        </mxCell>
        <mxCell id="Cn2aemH8Tb-rtELG62hV-13" style="rounded=0;orthogonalLoop=1;jettySize=auto;html=1;exitX=0;exitY=0.5;exitDx=0;exitDy=0;entryX=0.003;entryY=0.14;entryDx=0;entryDy=0;entryPerimeter=0;endArrow=none;endFill=0;" edge="1" parent="1" source="Cn2aemH8Tb-rtELG62hV-14" target="Cn2aemH8Tb-rtELG62hV-9">
          <mxGeometry relative="1" as="geometry" />
        </mxCell>
        <mxCell id="Cn2aemH8Tb-rtELG62hV-14" value=":OrderHeader" style="whiteSpace=wrap;html=1;" vertex="1" parent="1">
          <mxGeometry x="229" y="130" width="100" height="30" as="geometry" />
        </mxCell>
        <mxCell id="Cn2aemH8Tb-rtELG62hV-15" style="rounded=0;orthogonalLoop=1;jettySize=auto;html=1;exitX=0;exitY=0.5;exitDx=0;exitDy=0;entryX=0.001;entryY=0.136;entryDx=0;entryDy=0;entryPerimeter=0;endArrow=none;endFill=0;" edge="1" parent="1" source="Cn2aemH8Tb-rtELG62hV-17" target="Cn2aemH8Tb-rtELG62hV-9">
          <mxGeometry relative="1" as="geometry" />
        </mxCell>
        <mxCell id="Cn2aemH8Tb-rtELG62hV-16" style="rounded=0;orthogonalLoop=1;jettySize=auto;html=1;exitX=1;exitY=0.5;exitDx=0;exitDy=0;entryX=1;entryY=0.5;entryDx=0;entryDy=0;strokeColor=default;endArrow=none;endFill=0;" edge="1" parent="1" source="Cn2aemH8Tb-rtELG62hV-17" target="Cn2aemH8Tb-rtELG62hV-9">
          <mxGeometry relative="1" as="geometry" />
        </mxCell>
        <mxCell id="Cn2aemH8Tb-rtELG62hV-17" value=":LineItem" style="whiteSpace=wrap;html=1;" vertex="1" parent="1">
          <mxGeometry x="229" y="210" width="100" height="30" as="geometry" />
        </mxCell>
        <mxCell id="Cn2aemH8Tb-rtELG62hV-18" value="" style="group" vertex="1" connectable="0" parent="1">
          <mxGeometry x="123" y="312" width="306" height="30" as="geometry" />
        </mxCell>
        <mxCell id="Cn2aemH8Tb-rtELG62hV-19" value="&lt;b&gt;OrderHeader&lt;/b&gt;" style="whiteSpace=wrap;html=1;" vertex="1" parent="Cn2aemH8Tb-rtELG62hV-18">
          <mxGeometry width="100" height="30" as="geometry" />
        </mxCell>
        <mxCell id="Cn2aemH8Tb-rtELG62hV-20" value="&lt;b&gt;LineItem&lt;/b&gt;" style="whiteSpace=wrap;html=1;" vertex="1" parent="Cn2aemH8Tb-rtELG62hV-18">
          <mxGeometry x="206" width="100" height="30" as="geometry" />
        </mxCell>
        <mxCell id="Cn2aemH8Tb-rtELG62hV-21" style="edgeStyle=orthogonalEdgeStyle;rounded=0;orthogonalLoop=1;jettySize=auto;html=1;exitX=1;exitY=0.5;exitDx=0;exitDy=0;entryX=0;entryY=0.5;entryDx=0;entryDy=0;startArrow=diamondThin;startFill=1;startSize=12;endArrow=none;endFill=0;endSize=12;" edge="1" parent="Cn2aemH8Tb-rtELG62hV-18" source="Cn2aemH8Tb-rtELG62hV-19" target="Cn2aemH8Tb-rtELG62hV-20">
          <mxGeometry relative="1" as="geometry" />
        </mxCell>
        <mxCell id="Cn2aemH8Tb-rtELG62hV-22" value="1" style="edgeLabel;html=1;align=center;verticalAlign=middle;resizable=0;points=[];" vertex="1" connectable="0" parent="Cn2aemH8Tb-rtELG62hV-21">
          <mxGeometry x="-0.5377" y="2" relative="1" as="geometry">
            <mxPoint y="-8" as="offset" />
          </mxGeometry>
        </mxCell>
        <mxCell id="Cn2aemH8Tb-rtELG62hV-23" value="*" style="edgeLabel;html=1;align=center;verticalAlign=middle;resizable=0;points=[];" vertex="1" connectable="0" parent="Cn2aemH8Tb-rtELG62hV-21">
          <mxGeometry x="0.5472" y="1" relative="1" as="geometry">
            <mxPoint x="9" y="-8" as="offset" />
          </mxGeometry>
        </mxCell>
        <mxCell id="Cn2aemH8Tb-rtELG62hV-24" value="order" style="edgeLabel;html=1;align=center;verticalAlign=middle;resizable=0;points=[];" vertex="1" connectable="0" parent="Cn2aemH8Tb-rtELG62hV-21">
          <mxGeometry x="-0.4434" y="-1" relative="1" as="geometry">
            <mxPoint y="10" as="offset" />
          </mxGeometry>
        </mxCell>
        <mxCell id="Cn2aemH8Tb-rtELG62hV-25" value="item" style="edgeLabel;html=1;align=center;verticalAlign=middle;resizable=0;points=[];" vertex="1" connectable="0" parent="Cn2aemH8Tb-rtELG62hV-21">
          <mxGeometry x="0.6572" y="-3" relative="1" as="geometry">
            <mxPoint y="8" as="offset" />
          </mxGeometry>
        </mxCell>
        <mxCell id="Cn2aemH8Tb-rtELG62hV-26" value="" style="fontStyle=0;labelPosition=right;verticalLabelPosition=middle;align=left;verticalAlign=middle;spacingLeft=2;" vertex="1" parent="1">
          <mxGeometry x="475" y="175" width="10" height="10" as="geometry" />
        </mxCell>
        <mxCell id="Cn2aemH8Tb-rtELG62hV-27" value="" style="fontStyle=0;labelPosition=right;verticalLabelPosition=middle;align=left;verticalAlign=middle;spacingLeft=2;" vertex="1" parent="1">
          <mxGeometry x="75" y="109" width="10" height="10" as="geometry" />
        </mxCell>
        <mxCell id="Cn2aemH8Tb-rtELG62hV-28" value="&lt;div&gt;&lt;b&gt;Figure 11.48 Delegation Connectors connect externally provided Interfaces to the parts that realize or require&lt;/b&gt;&lt;/div&gt;&lt;div&gt;&lt;b&gt;them.&lt;/b&gt;&lt;/div&gt;" style="text;html=1;align=left;verticalAlign=middle;resizable=0;points=[];autosize=1;strokeColor=none;fillColor=none;" vertex="1" parent="1">
          <mxGeometry y="360" width="640" height="40" as="geometry" />
        </mxCell>
      </root>
    </mxGraphModel>
  </diagram>
</mxfile>
